<?xml version="1.0" encoding="UTF-8" standalone="no"?>
<!DOCTYPE svg PUBLIC "-//W3C//DTD SVG 1.1//EN"
 "http://www.w3.org/Graphics/SVG/1.1/DTD/svg11.dtd">
<!-- Generated by graphviz version 2.50.0 (20220708.1628)
 -->
<!-- Title: snakemake_dag Pages: 1 -->
<svg width="872pt" height="548pt"
 viewBox="0.00 0.00 871.50 548.00" xmlns="http://www.w3.org/2000/svg" xmlns:xlink="http://www.w3.org/1999/xlink">
<g id="graph0" class="graph" transform="scale(1 1) rotate(0) translate(4 544)">
<title>snakemake_dag</title>
<polygon fill="white" stroke="transparent" points="-4,4 -4,-544 867.5,-544 867.5,4 -4,4"/>
<!-- 0 -->
<g id="node1" class="node">
<title>0</title>
<path fill="none" stroke="#ced856" stroke-width="2" d="M494.5,-36C494.5,-36 423.5,-36 423.5,-36 417.5,-36 411.5,-30 411.5,-24 411.5,-24 411.5,-12 411.5,-12 411.5,-6 417.5,0 423.5,0 423.5,0 494.5,0 494.5,0 500.5,0 506.5,-6 506.5,-12 506.5,-12 506.5,-24 506.5,-24 506.5,-30 500.5,-36 494.5,-36"/>
<text text-anchor="middle" x="459" y="-15.5" font-family="sans" font-size="10.00">make_summary</text>
</g>
<!-- 1 -->
<g id="node2" class="node">
<title>1</title>
<path fill="none" stroke="#569ad8" stroke-width="2" d="M203.5,-108C203.5,-108 132.5,-108 132.5,-108 126.5,-108 120.5,-102 120.5,-96 120.5,-96 120.5,-84 120.5,-84 120.5,-78 126.5,-72 132.5,-72 132.5,-72 203.5,-72 203.5,-72 209.5,-72 215.5,-78 215.5,-84 215.5,-84 215.5,-96 215.5,-96 215.5,-102 209.5,-108 203.5,-108"/>
<text text-anchor="middle" x="168" y="-87.5" font-family="sans" font-size="10.00">make_rulegraph</text>
</g>
<!-- 1&#45;&gt;0 -->
<g id="edge10" class="edge">
<title>1&#45;&gt;0</title>
<path fill="none" stroke="grey" stroke-width="2" d="M215.68,-75.72C220.51,-74.44 225.35,-73.18 230,-72 288.24,-57.28 355.21,-41.97 401.63,-31.61"/>
<polygon fill="grey" stroke="grey" stroke-width="2" points="402.5,-35 411.5,-29.41 400.98,-28.17 402.5,-35"/>
</g>
<!-- 2 -->
<g id="node3" class="node">
<title>2</title>
<path fill="none" stroke="#68d856" stroke-width="2" d="M280,-252C280,-252 194,-252 194,-252 188,-252 182,-246 182,-240 182,-240 182,-228 182,-228 182,-222 188,-216 194,-216 194,-216 280,-216 280,-216 286,-216 292,-222 292,-228 292,-228 292,-240 292,-240 292,-246 286,-252 280,-252"/>
<text text-anchor="middle" x="237" y="-231.5" font-family="sans" font-size="10.00">get_mut_bind_expr</text>
</g>
<!-- 2&#45;&gt;0 -->
<g id="edge6" class="edge">
<title>2&#45;&gt;0</title>
<path fill="none" stroke="grey" stroke-width="2" d="M245.77,-215.97C250.98,-205.66 257.6,-192.18 263,-180 283.95,-132.77 268.65,-107.69 306,-72 331.86,-47.29 369.81,-34.05 401.44,-26.98"/>
<polygon fill="grey" stroke="grey" stroke-width="2" points="402.38,-30.36 411.46,-24.9 400.96,-23.51 402.38,-30.36"/>
</g>
<!-- 3 -->
<g id="node4" class="node">
<title>3</title>
<path fill="none" stroke="#d8bc56" stroke-width="2" d="M242,-180C242,-180 168,-180 168,-180 162,-180 156,-174 156,-168 156,-168 156,-156 156,-156 156,-150 162,-144 168,-144 168,-144 242,-144 242,-144 248,-144 254,-150 254,-156 254,-156 254,-168 254,-168 254,-174 248,-180 242,-180"/>
<text text-anchor="middle" x="205" y="-159.5" font-family="sans" font-size="10.00">bind_expr_filters</text>
</g>
<!-- 2&#45;&gt;3 -->
<g id="edge12" class="edge">
<title>2&#45;&gt;3</title>
<path fill="none" stroke="grey" stroke-width="2" d="M229.09,-215.7C225.45,-207.73 221.05,-198.1 217.01,-189.26"/>
<polygon fill="grey" stroke="grey" stroke-width="2" points="220.16,-187.74 212.82,-180.1 213.79,-190.65 220.16,-187.74"/>
</g>
<!-- 11 -->
<g id="node12" class="node">
<title>11</title>
<path fill="none" stroke="#56d8a9" stroke-width="2" d="M562,-180C562,-180 494,-180 494,-180 488,-180 482,-174 482,-168 482,-168 482,-156 482,-156 482,-150 488,-144 494,-144 494,-144 562,-144 562,-144 568,-144 574,-150 574,-156 574,-156 574,-168 574,-168 574,-174 568,-180 562,-180"/>
<text text-anchor="middle" x="528" y="-159.5" font-family="sans" font-size="10.00">escape_profiles</text>
</g>
<!-- 2&#45;&gt;11 -->
<g id="edge20" class="edge">
<title>2&#45;&gt;11</title>
<path fill="none" stroke="grey" stroke-width="2" d="M292.08,-219.75C343.52,-207.38 419.94,-188.99 471.75,-176.53"/>
<polygon fill="grey" stroke="grey" stroke-width="2" points="472.87,-179.86 481.77,-174.12 471.23,-173.06 472.87,-179.86"/>
</g>
<!-- 3&#45;&gt;0 -->
<g id="edge4" class="edge">
<title>3&#45;&gt;0</title>
<path fill="none" stroke="grey" stroke-width="2" d="M212.64,-143.88C222.53,-123.68 241.67,-90.51 268,-72 307.45,-44.27 360.94,-31.02 401.28,-24.7"/>
<polygon fill="grey" stroke="grey" stroke-width="2" points="401.85,-28.15 411.23,-23.24 400.83,-21.23 401.85,-28.15"/>
</g>
<!-- 4 -->
<g id="node5" class="node">
<title>4</title>
<path fill="none" stroke="#88d856" stroke-width="2" d="M152,-252C152,-252 12,-252 12,-252 6,-252 0,-246 0,-240 0,-240 0,-228 0,-228 0,-222 6,-216 12,-216 12,-216 152,-216 152,-216 158,-216 164,-222 164,-228 164,-228 164,-240 164,-240 164,-246 158,-252 152,-252"/>
<text text-anchor="middle" x="82" y="-231.5" font-family="sans" font-size="10.00">get_early2020_mut_bind_expr</text>
</g>
<!-- 4&#45;&gt;3 -->
<g id="edge13" class="edge">
<title>4&#45;&gt;3</title>
<path fill="none" stroke="grey" stroke-width="2" d="M112.09,-215.88C128.32,-206.64 148.54,-195.13 165.97,-185.21"/>
<polygon fill="grey" stroke="grey" stroke-width="2" points="167.84,-188.18 174.8,-180.19 164.37,-182.09 167.84,-188.18"/>
</g>
<!-- 5 -->
<g id="node6" class="node">
<title>5</title>
<path fill="none" stroke="#56d8d0" stroke-width="2" d="M631.5,-540C631.5,-540 518.5,-540 518.5,-540 512.5,-540 506.5,-534 506.5,-528 506.5,-528 506.5,-516 506.5,-516 506.5,-510 512.5,-504 518.5,-504 518.5,-504 631.5,-504 631.5,-504 637.5,-504 643.5,-510 643.5,-516 643.5,-516 643.5,-528 643.5,-528 643.5,-534 637.5,-540 631.5,-540"/>
<text text-anchor="middle" x="575" y="-519.5" font-family="sans" font-size="10.00">get_codon_variant_table</text>
</g>
<!-- 5&#45;&gt;0 -->
<g id="edge8" class="edge">
<title>5&#45;&gt;0</title>
<path fill="none" stroke="grey" stroke-width="2" d="M506.33,-512.56C430.8,-498.99 320,-464.51 320,-379 320,-379 320,-379 320,-161 320,-106.16 373.6,-64.67 414.24,-41.1"/>
<polygon fill="grey" stroke="grey" stroke-width="2" points="416.2,-44.01 423.2,-36.06 412.77,-37.91 416.2,-44.01"/>
</g>
<!-- 6 -->
<g id="node7" class="node">
<title>6</title>
<path fill="none" stroke="#d87556" stroke-width="2" d="M707.5,-396C707.5,-396 588.5,-396 588.5,-396 582.5,-396 576.5,-390 576.5,-384 576.5,-384 576.5,-372 576.5,-372 576.5,-366 582.5,-360 588.5,-360 588.5,-360 707.5,-360 707.5,-360 713.5,-360 719.5,-366 719.5,-372 719.5,-372 719.5,-384 719.5,-384 719.5,-390 713.5,-396 707.5,-396"/>
<text text-anchor="middle" x="648" y="-375.5" font-family="sans" font-size="10.00">aggregate_variant_counts</text>
</g>
<!-- 5&#45;&gt;6 -->
<g id="edge14" class="edge">
<title>5&#45;&gt;6</title>
<path fill="none" stroke="grey" stroke-width="2" d="M576.01,-503.93C577.73,-485.25 582.4,-454.89 595,-432 600.87,-421.33 609.53,-411.38 618.16,-403.05"/>
<polygon fill="grey" stroke="grey" stroke-width="2" points="620.66,-405.5 625.66,-396.16 615.93,-400.35 620.66,-405.5"/>
</g>
<!-- 7 -->
<g id="node8" class="node">
<title>7</title>
<path fill="none" stroke="#56d88a" stroke-width="2" d="M680.5,-468C680.5,-468 615.5,-468 615.5,-468 609.5,-468 603.5,-462 603.5,-456 603.5,-456 603.5,-444 603.5,-444 603.5,-438 609.5,-432 615.5,-432 615.5,-432 680.5,-432 680.5,-432 686.5,-432 692.5,-438 692.5,-444 692.5,-444 692.5,-456 692.5,-456 692.5,-462 686.5,-468 680.5,-468"/>
<text text-anchor="middle" x="648" y="-447.5" font-family="sans" font-size="10.00">count_variants</text>
</g>
<!-- 5&#45;&gt;7 -->
<g id="edge16" class="edge">
<title>5&#45;&gt;7</title>
<path fill="none" stroke="grey" stroke-width="2" d="M593.04,-503.7C602.06,-495.05 613.12,-484.45 622.94,-475.03"/>
<polygon fill="grey" stroke="grey" stroke-width="2" points="625.37,-477.55 630.16,-468.1 620.52,-472.5 625.37,-477.55"/>
</g>
<!-- 6&#45;&gt;0 -->
<g id="edge1" class="edge">
<title>6&#45;&gt;0</title>
<path fill="none" stroke="grey" stroke-width="2" d="M662.42,-359.89C682.38,-334.42 716,-284.2 716,-235 716,-235 716,-235 716,-161 716,-70.5 592.41,-37.23 516.64,-25.34"/>
<polygon fill="grey" stroke="grey" stroke-width="2" points="517.14,-21.87 506.74,-23.86 516.11,-28.8 517.14,-21.87"/>
</g>
<!-- 8 -->
<g id="node9" class="node">
<title>8</title>
<path fill="none" stroke="#d85656" stroke-width="2" d="M851.5,-324C851.5,-324 756.5,-324 756.5,-324 750.5,-324 744.5,-318 744.5,-312 744.5,-312 744.5,-300 744.5,-300 744.5,-294 750.5,-288 756.5,-288 756.5,-288 851.5,-288 851.5,-288 857.5,-288 863.5,-294 863.5,-300 863.5,-300 863.5,-312 863.5,-312 863.5,-318 857.5,-324 851.5,-324"/>
<text text-anchor="middle" x="804" y="-303.5" font-family="sans" font-size="10.00">counts_to_cells_ratio</text>
</g>
<!-- 6&#45;&gt;8 -->
<g id="edge17" class="edge">
<title>6&#45;&gt;8</title>
<path fill="none" stroke="grey" stroke-width="2" d="M686.16,-359.88C707.39,-350.35 734.01,-338.41 756.57,-328.28"/>
<polygon fill="grey" stroke="grey" stroke-width="2" points="758.27,-331.36 765.96,-324.07 755.41,-324.97 758.27,-331.36"/>
</g>
<!-- 9 -->
<g id="node10" class="node">
<title>9</title>
<path fill="none" stroke="#d89c56" stroke-width="2" d="M570.5,-324C570.5,-324 493.5,-324 493.5,-324 487.5,-324 481.5,-318 481.5,-312 481.5,-312 481.5,-300 481.5,-300 481.5,-294 487.5,-288 493.5,-288 493.5,-288 570.5,-288 570.5,-288 576.5,-288 582.5,-294 582.5,-300 582.5,-300 582.5,-312 582.5,-312 582.5,-318 576.5,-324 570.5,-324"/>
<text text-anchor="middle" x="532" y="-303.5" font-family="sans" font-size="10.00">counts_to_scores</text>
</g>
<!-- 6&#45;&gt;9 -->
<g id="edge18" class="edge">
<title>6&#45;&gt;9</title>
<path fill="none" stroke="grey" stroke-width="2" d="M619.62,-359.88C604.46,-350.72 585.59,-339.34 569.26,-329.48"/>
<polygon fill="grey" stroke="grey" stroke-width="2" points="570.86,-326.36 560.49,-324.19 567.24,-332.35 570.86,-326.36"/>
</g>
<!-- 7&#45;&gt;6 -->
<g id="edge15" class="edge">
<title>7&#45;&gt;6</title>
<path fill="none" stroke="grey" stroke-width="2" d="M648,-431.7C648,-423.98 648,-414.71 648,-406.11"/>
<polygon fill="grey" stroke="grey" stroke-width="2" points="651.5,-406.1 648,-396.1 644.5,-406.1 651.5,-406.1"/>
</g>
<!-- 8&#45;&gt;0 -->
<g id="edge2" class="edge">
<title>8&#45;&gt;0</title>
<path fill="none" stroke="grey" stroke-width="2" d="M804.09,-287.84C803.33,-244.48 794.94,-129.91 730,-72 699.09,-44.44 586.49,-29.94 516.53,-23.43"/>
<polygon fill="grey" stroke="grey" stroke-width="2" points="516.8,-19.94 506.53,-22.52 516.17,-26.91 516.8,-19.94"/>
</g>
<!-- 9&#45;&gt;0 -->
<g id="edge3" class="edge">
<title>9&#45;&gt;0</title>
<path fill="none" stroke="grey" stroke-width="2" d="M582.78,-297.59C610.29,-290.7 642.04,-277.45 659,-252 667.87,-238.68 663.52,-231.35 659,-216 637.45,-142.92 622.84,-122.73 566,-72 551.51,-59.07 533.31,-48.51 516.04,-40.31"/>
<polygon fill="grey" stroke="grey" stroke-width="2" points="517.12,-36.96 506.57,-36 514.22,-43.33 517.12,-36.96"/>
</g>
<!-- 10 -->
<g id="node11" class="node">
<title>10</title>
<path fill="none" stroke="#56d86b" stroke-width="2" d="M638,-252C638,-252 524,-252 524,-252 518,-252 512,-246 512,-240 512,-240 512,-228 512,-228 512,-222 518,-216 524,-216 524,-216 638,-216 638,-216 644,-216 650,-222 650,-228 650,-228 650,-240 650,-240 650,-246 644,-252 638,-252"/>
<text text-anchor="middle" x="581" y="-231.5" font-family="sans" font-size="10.00">call_strong_escape_sites</text>
</g>
<!-- 9&#45;&gt;10 -->
<g id="edge19" class="edge">
<title>9&#45;&gt;10</title>
<path fill="none" stroke="grey" stroke-width="2" d="M544.11,-287.7C549.87,-279.47 556.86,-269.48 563.21,-260.42"/>
<polygon fill="grey" stroke="grey" stroke-width="2" points="566.16,-262.3 569.03,-252.1 560.42,-258.29 566.16,-262.3"/>
</g>
<!-- 9&#45;&gt;11 -->
<g id="edge21" class="edge">
<title>9&#45;&gt;11</title>
<path fill="none" stroke="grey" stroke-width="2" d="M519.69,-287.78C513.35,-277.84 506.27,-264.8 503,-252 499.04,-236.5 499.5,-231.61 503,-216 505.01,-207.01 508.73,-197.75 512.7,-189.53"/>
<polygon fill="grey" stroke="grey" stroke-width="2" points="515.91,-190.94 517.37,-180.44 509.68,-187.73 515.91,-190.94"/>
</g>
<!-- 12 -->
<g id="node13" class="node">
<title>12</title>
<path fill="none" stroke="#567bd8" stroke-width="2" d="M413.5,-180C413.5,-180 360.5,-180 360.5,-180 354.5,-180 348.5,-174 348.5,-168 348.5,-168 348.5,-156 348.5,-156 348.5,-150 354.5,-144 360.5,-144 360.5,-144 413.5,-144 413.5,-144 419.5,-144 425.5,-150 425.5,-156 425.5,-156 425.5,-168 425.5,-168 425.5,-174 419.5,-180 413.5,-180"/>
<text text-anchor="middle" x="387" y="-159.5" font-family="sans" font-size="10.00">output_pdbs</text>
</g>
<!-- 9&#45;&gt;12 -->
<g id="edge23" class="edge">
<title>9&#45;&gt;12</title>
<path fill="none" stroke="grey" stroke-width="2" d="M486.04,-287.88C467.54,-279.28 447.07,-267.36 432,-252 414.84,-234.5 402.89,-209.14 395.65,-189.97"/>
<polygon fill="grey" stroke="grey" stroke-width="2" points="398.86,-188.54 392.19,-180.31 392.27,-190.9 398.86,-188.54"/>
</g>
<!-- 13 -->
<g id="node14" class="node">
<title>13</title>
<path fill="none" stroke="#afd856" stroke-width="2" d="M496.5,-108C496.5,-108 421.5,-108 421.5,-108 415.5,-108 409.5,-102 409.5,-96 409.5,-96 409.5,-84 409.5,-84 409.5,-78 415.5,-72 421.5,-72 421.5,-72 496.5,-72 496.5,-72 502.5,-72 508.5,-78 508.5,-84 508.5,-84 508.5,-96 508.5,-96 508.5,-102 502.5,-108 496.5,-108"/>
<text text-anchor="middle" x="459" y="-87.5" font-family="sans" font-size="10.00">make_supp_data</text>
</g>
<!-- 9&#45;&gt;13 -->
<g id="edge24" class="edge">
<title>9&#45;&gt;13</title>
<path fill="none" stroke="grey" stroke-width="2" d="M518.32,-287.63C510.95,-277.64 502.13,-264.6 496,-252 474.69,-208.21 465.37,-151.68 461.51,-118.57"/>
<polygon fill="grey" stroke="grey" stroke-width="2" points="464.95,-117.86 460.4,-108.3 458,-118.61 464.95,-117.86"/>
</g>
<!-- 10&#45;&gt;0 -->
<g id="edge7" class="edge">
<title>10&#45;&gt;0</title>
<path fill="none" stroke="grey" stroke-width="2" d="M584.4,-215.87C587.32,-197.65 590.07,-168.18 583,-144 572.35,-107.55 563.47,-99.23 537,-72 525.87,-60.55 511.91,-50.14 498.88,-41.63"/>
<polygon fill="grey" stroke="grey" stroke-width="2" points="500.38,-38.44 490.06,-36.05 496.64,-44.35 500.38,-38.44"/>
</g>
<!-- 10&#45;&gt;11 -->
<g id="edge22" class="edge">
<title>10&#45;&gt;11</title>
<path fill="none" stroke="grey" stroke-width="2" d="M567.9,-215.7C561.61,-207.39 553.95,-197.28 547.04,-188.14"/>
<polygon fill="grey" stroke="grey" stroke-width="2" points="549.78,-185.96 540.95,-180.1 544.2,-190.19 549.78,-185.96"/>
</g>
<!-- 11&#45;&gt;0 -->
<g id="edge11" class="edge">
<title>11&#45;&gt;0</title>
<path fill="none" stroke="grey" stroke-width="2" d="M529.56,-143.9C530.5,-125.19 529.74,-94.81 518,-72 512.19,-60.71 502.91,-50.68 493.42,-42.47"/>
<polygon fill="grey" stroke="grey" stroke-width="2" points="495.44,-39.6 485.47,-36.01 491.02,-45.03 495.44,-39.6"/>
</g>
<!-- 11&#45;&gt;13 -->
<g id="edge25" class="edge">
<title>11&#45;&gt;13</title>
<path fill="none" stroke="grey" stroke-width="2" d="M510.94,-143.7C502.5,-135.14 492.18,-124.66 482.96,-115.3"/>
<polygon fill="grey" stroke="grey" stroke-width="2" points="485.37,-112.77 475.86,-108.1 480.39,-117.68 485.37,-112.77"/>
</g>
<!-- 12&#45;&gt;0 -->
<g id="edge9" class="edge">
<title>12&#45;&gt;0</title>
<path fill="none" stroke="grey" stroke-width="2" d="M386.42,-143.87C386.5,-125.13 388.78,-94.73 401,-72 407,-60.83 416.3,-50.78 425.7,-42.52"/>
<polygon fill="grey" stroke="grey" stroke-width="2" points="428.09,-45.08 433.55,-36.01 423.62,-39.69 428.09,-45.08"/>
</g>
<!-- 13&#45;&gt;0 -->
<g id="edge5" class="edge">
<title>13&#45;&gt;0</title>
<path fill="none" stroke="grey" stroke-width="2" d="M459,-71.7C459,-63.98 459,-54.71 459,-46.11"/>
<polygon fill="grey" stroke="grey" stroke-width="2" points="462.5,-46.1 459,-36.1 455.5,-46.1 462.5,-46.1"/>
</g>
</g>
</svg>
